<svg xmlns="http://www.w3.org/2000/svg" viewBox="0 0 1024 1024"><path d="M143.872 821.504h771.174v78.643H143.872v-78.643zm303.206-22.528l-289.894-.614-50.79-196.71h60.826l59.29 78.95 208.486.102-81.51-315.187 80.896-.205 197.222 315.392h222.618c33.587.205 60.211 26.624 59.699 59.29-.717 32.563-28.262 58.88-61.85 58.982h-404.89zm345.6-447.488c-10.24 2.97-20.07 1.843-29.491-3.379-9.523-5.12-15.77-12.902-18.739-23.347s-1.843-20.378 3.379-29.696c5.325-9.421 13.107-15.565 23.347-18.534 10.445-2.97 20.275-1.843 29.594 3.277 9.421 5.222 15.667 13.107 18.637 23.552 2.97 10.342 1.843 20.173-3.277 29.594-5.222 9.421-13.005 15.565-23.552 18.534zm17.101 59.699c-3.277-11.469-2.048-22.426 3.789-32.87 5.837-10.547 14.438-17.51 25.907-20.685 11.469-3.379 22.426-2.048 32.87 3.789 10.547 5.837 17.408 14.438 20.685 25.907s2.048 22.426-3.789 32.87c-5.734 10.547-14.438 17.408-25.907 20.685-11.366 3.277-22.323 2.048-32.87-3.891-10.445-5.734-17.408-14.336-20.685-25.805zM637.44 543.181c5.632-1.536 11.162-1.024 16.384 1.946s8.704 7.27 10.342 12.902c1.638 5.837 1.024 11.264-1.946 16.589s-7.168 8.704-12.902 10.342c-5.734 1.536-11.264.922-16.486-2.048-5.222-2.867-8.704-7.168-10.342-12.902-1.638-5.632-.922-11.162 1.946-16.384s7.27-8.704 12.902-10.342zm213.299 10.957c-12.595 3.584-24.781 2.253-36.147-4.198-11.571-6.349-19.149-15.872-22.733-28.57-3.686-12.595-2.253-24.781 4.096-36.147 6.349-11.571 15.872-19.046 28.57-22.733 12.595-3.584 24.781-2.253 36.25 4.096 11.571 6.451 19.046 15.872 22.63 28.57 3.686 12.698 2.355 24.781-4.096 36.352-6.349 11.366-15.872 18.944-28.57 22.528zm-289.485-52.532c-6.246-3.482-10.342-8.704-12.39-15.667s-1.331-13.517 2.253-19.763c3.379-6.246 8.602-10.342 15.565-12.39 6.963-1.946 13.517-1.229 19.763 2.253 6.246 3.379 10.342 8.602 12.39 15.565 1.946 6.963 1.229 13.517-2.253 19.866-3.379 6.246-8.602 10.342-15.565 12.39-6.963 1.946-13.517 1.229-19.763-2.253zm34.816-102.707c-7.987 2.355-15.667 1.434-23.04-2.662s-12.186-10.138-14.541-18.125c-2.253-7.987-1.331-15.667 2.662-23.04 4.096-7.373 10.138-12.186 18.125-14.438s15.667-1.434 23.04 2.662c7.373 4.096 12.186 10.138 14.541 18.125 2.253 7.987 1.331 15.667-2.662 23.04-4.096 7.373-10.24 12.186-18.227 14.541zm86.426-65.229c-9.216 2.56-18.022 1.536-26.419-3.072s-13.824-11.571-16.486-20.787c-2.662-9.216-1.638-17.92 2.97-26.317 4.71-8.397 11.571-13.926 20.787-16.486 9.216-2.662 17.92-1.638 26.317 2.97 8.397 4.71 13.926 11.571 16.486 20.787 2.765 9.216 1.741 17.92-2.97 26.317-4.608 8.397-11.469 13.926-20.685 16.486zm84.275 294.196c-13.824 3.891-27.034 2.56-39.526-4.506-12.493-6.758-20.787-17.203-24.781-31.13-3.891-13.824-2.56-27.034 4.506-39.526 6.758-12.595 17.306-20.787 31.13-24.781 13.926-3.891 27.136-2.458 39.629 4.506 12.493 6.861 20.685 17.306 24.678 31.13 3.994 13.926 2.458 27.136-4.403 39.629-6.963 12.493-17.408 20.685-31.232 24.678z"/></svg>