<svg xmlns="http://www.w3.org/2000/svg" viewBox="0 0 1024 1024"><path d="M519.27 959.744c-239.821 0-434.176-194.355-434.176-434.176 0-239.718 194.355-434.074 434.074-434.074 239.821 0 434.176 194.355 434.176 434.074 0 239.821-194.355 434.074-434.176 434.074zm-265.932-294.81h64.922V486.963h125.952c69.53 0 117.555-12.8 144.077-38.502 26.624-25.805 39.936-57.344 39.936-94.515 0-21.709-5.018-41.574-14.95-59.699-9.933-18.022-23.04-32.154-39.322-42.189s-36.557-16.794-60.621-20.48c-17.203-2.662-42.086-4.096-74.65-4.096H253.236v437.453zm64.921-229.58V279.092h125.645c29.491 0 49.664 1.331 60.621 3.994 16.998 4.096 30.72 12.8 41.062 25.805 10.445 13.005 15.565 28.672 15.565 46.899 0 25.293-8.806 44.851-26.419 58.88-17.613 13.824-47.514 20.787-89.498 20.787H318.259zm415.232 419.942l30.106-30.106-45.158-195.584 82.842-82.739c12.39-12.493 12.39-32.666 0-45.056-12.595-12.595-32.768-12.595-45.261 0l-82.739 82.637-195.584-45.158-30.106 30.106 158.003 82.842-82.739 82.739-52.634-7.578-22.63 22.528 67.686 37.581 37.683 67.789 22.63-22.63-7.578-52.634 82.739-82.739 82.842 158.003z"/></svg>