<?xml version="1.0" encoding="UTF-8"?>
<svg width="24px" height="24px" viewBox="0 0 24 24" version="1.1" xmlns="http://www.w3.org/2000/svg" xmlns:xlink="http://www.w3.org/1999/xlink">
    <!-- Generator: Sketch 63.1 (92452) - https://sketch.com -->
    <title>Operations/Flight-crew/aircraft-scheduled</title>
    <desc>Created with Sketch.</desc>
    <g id="Operations/Flight-crew/aircraft-scheduled" stroke="none" stroke-width="1" fill="none" fill-rule="evenodd">
        <path d="M21.3284038,19.1162294 L21.3284038,20.9475 L3.36656162,20.9475 L3.36656162,19.1162294 L21.3284038,19.1162294 Z M10.1321252,8.49098904 L14.7261062,15.8336599 L19.9116185,15.8355744 C20.6942536,15.8412384 21.3124107,16.4568952 21.3039736,17.2157782 C21.2856649,17.9770282 20.6429121,18.5877625 19.8625696,18.5909632 L10.4297899,18.5903852 L3.6790075,18.5771426 L2.49375,13.9940919 L3.91026997,13.9966014 L5.29332648,15.8330818 L10.1470213,15.8356918 L8.24877528,8.49571886 L10.1321252,8.49098904 Z M17.99688,8.64 C19.72224,8.64 21.12,10.03776 21.12,11.76 C21.12,13.48224 19.72224,14.88 17.99688,14.88 C16.27464,14.88 14.88,13.48224 14.88,11.76 C14.88,10.03776 16.27464,8.64 17.99688,8.64 Z M18,9.264 C16.62096,9.264 15.504,10.38096 15.504,11.76 C15.504,13.13904 16.62096,14.256 18,14.256 C19.37904,14.256 20.496,13.13904 20.496,11.76 C20.496,10.38096 19.37904,9.264 18,9.264 Z M18.156,10.2 L18.156,11.838 L19.56,12.67104 L19.326,13.0548 L17.688,12.072 L17.688,10.2 L18.156,10.2 Z" fill="#212121"></path>
    </g>
</svg>