<svg xmlns="http://www.w3.org/2000/svg" viewBox="0 0 1024 1024"><path d="M143.667 822.016h766.259v78.131H143.667v-78.131zM445.03 799.59l-288.051-.614-50.586-195.482 60.416.102 58.982 78.336 207.155.102-80.998-313.139 80.282-.205 195.994 313.344 221.286.102c33.382.205 59.699 26.419 59.392 58.88-.819 32.358-28.16 58.47-61.44 58.675H445.03zm234.599-318.976c0-35.942 23.552-34.714 52.736-34.714 29.286 0 52.838-1.331 52.838 34.714v90.931c-6.963 0-99.533 2.867-105.574 0v-90.931zm-28.365 12.084v35.226H545.69v-35.226h105.574zm263.68 0v35.226H809.472v-35.226h105.574zm-235.213-61.133l-24.986 24.986-50.79-50.79 24.986-24.883 50.79 50.79zm100.659 0l50.79-50.688 24.883 24.883-50.79 50.79-24.883-24.986zm-30.31-115.2v105.574h-35.226V316.365h35.226z"/></svg>