<?xml version="1.0" encoding="UTF-8"?>
<svg width="24px" height="24px" viewBox="0 0 24 24" version="1.1" xmlns="http://www.w3.org/2000/svg" xmlns:xlink="http://www.w3.org/1999/xlink">
    <!-- Generator: Sketch 62 (91390) - https://sketch.com -->
    <title>Vehicle/Airport/fueltruck-left</title>
    <desc>Created with Sketch.</desc>
    <g id="Vehicle/Airport/fueltruck-left" stroke="none" stroke-width="1" fill="none" fill-rule="evenodd">
        <path d="M18.7683844,17.0114798 L18.4056652,17.0114798 C18.4453777,17.1697914 18.4664592,17.3354366 18.4664592,17.506 C18.4664592,18.6334867 17.545264,19.5460625 16.4106612,19.5460625 C15.2760583,19.5460625 14.3548631,18.6334867 14.3548631,17.506 C14.3548631,17.3354366 14.3759446,17.1697914 14.4156571,17.0114798 L7.04021064,17.0114798 C7.0799232,17.1697914 7.10100465,17.3354366 7.10100465,17.506 C7.10100465,18.6334867 6.17980944,19.5460625 5.04520661,19.5460625 C3.91060378,19.5460625 2.98940857,18.6334867 2.98940857,17.506 C2.98940857,17.3354366 3.01049002,17.1697914 3.05020258,17.0114798 L2.02772903,17.0114798 L1.23337317,16.036 L0,16.036 L0,14.86 L0.989256198,14.86 L0.989256198,11.724 L1.95357729,8.588 L6.13338843,8.588 L6.13338843,14.86 L8.90330579,14.86 C7.59206312,14.86 6.52909091,13.7970278 6.52909091,12.4857851 L6.52909091,10.3742149 C6.52909091,9.06297221 7.59206312,8 8.90330579,8 L21.5657851,8 C22.8770278,8 23.94,9.06297221 23.94,10.3742149 L23.94,12.4857851 C23.94,13.7970278 22.8770278,14.86 21.5657851,14.86 L23.3464463,14.86 L23.3464463,16.036 L22.1888558,16.036 C22.5773392,16.4070119 22.8191865,16.928295 22.8191865,17.506 C22.8191865,18.6334867 21.8979913,19.5460625 20.7633884,19.5460625 C19.6287856,19.5460625 18.7075904,18.6334867 18.7075904,17.506 C18.7075904,17.3354366 18.7286718,17.1697914 18.7683844,17.0114798 L18.7683844,17.0114798 Z M5.04520661,18.388 C5.53692261,18.388 5.93553719,17.9931151 5.93553719,17.506 C5.93553719,17.0188849 5.53692261,16.624 5.04520661,16.624 C4.55349061,16.624 4.15487603,17.0188849 4.15487603,17.506 C4.15487603,17.9931151 4.55349061,18.388 5.04520661,18.388 Z M2.24720881,9.568 L1.68824041,11.7202357 L5.53577721,11.7202357 L5.53577721,9.568 L2.24720881,9.568 Z M16.4106612,18.388 C16.9023772,18.388 17.3009917,17.9931151 17.3009917,17.506 C17.3009917,17.0188849 16.9023772,16.624 16.4106612,16.624 C15.9189452,16.624 15.5203306,17.0188849 15.5203306,17.506 C15.5203306,17.9931151 15.9189452,18.388 16.4106612,18.388 Z M20.7633884,18.388 C21.2551044,18.388 21.653719,17.9931151 21.653719,17.506 C21.653719,17.0188849 21.2551044,16.624 20.7633884,16.624 C20.2716724,16.624 19.8730579,17.0188849 19.8730579,17.506 C19.8730579,17.9931151 20.2716724,18.388 20.7633884,18.388 Z" fill="#212121"></path>
    </g>
</svg>