<svg xmlns="http://www.w3.org/2000/svg" viewBox="0 0 1024 1024"><path d="M468.173 772.454h85.094V687.36h-85.094v85.094zm42.598-680.96c-235.008 0-425.677 190.771-425.677 425.574 0 235.008 190.771 425.677 425.677 425.677s425.574-190.771 425.574-425.677c0-234.906-190.771-425.574-425.574-425.574zm0 766.055c-187.802 0-340.48-152.678-340.48-340.48s152.678-340.48 340.48-340.48 340.48 152.781 340.48 340.48-152.781 340.48-340.48 340.48zm0-595.763c-94.106 0-170.291 76.186-170.291 170.189h85.094c0-46.797 38.298-85.094 85.197-85.094s85.094 38.298 85.094 85.094c0 85.094-127.693 74.547-127.693 212.89h85.094c0-95.846 127.693-106.496 127.693-212.89 0-94.003-76.186-170.189-170.189-170.189z"/></svg>