<svg xmlns="http://www.w3.org/2000/svg" viewBox="0 0 1024 1024"><path d="M510.771 91.494c-235.008 0-425.677 190.771-425.677 425.574 0 235.008 190.771 425.677 425.677 425.677s425.574-190.771 425.574-425.677c0-234.906-190.771-425.574-425.574-425.574zm42.496 723.559h-85.094v-85.197h85.094v85.197zm88.064-329.831l-38.195 39.117c-30.72 31.13-49.869 56.627-49.869 120.422h-85.094v-21.197c0-46.899 19.149-89.395 49.766-120.525l52.736-53.555c15.77-15.36 25.19-36.557 25.19-60.006 0-46.797-38.4-85.094-85.094-85.094-46.899 0-85.197 38.298-85.197 85.094H340.48c0-94.106 76.186-170.291 170.291-170.291S680.96 295.373 680.96 389.478c0 37.478-15.36 71.475-39.629 95.744z"/></svg>