<svg xmlns="http://www.w3.org/2000/svg" viewBox="0 0 1024 1024"><path d="M917.811 934.554c0 9.216-7.373 16.691-16.384 16.691H120.013c-8.909 0-16.282-7.475-16.282-16.691V686.541c0-15.053 12.186-27.238 27.136-27.238h20.173c14.95 0 27.034-12.186 27.034-27.136v-132.71c0-13.517 10.957-24.371 24.474-24.371 9.626 0 17.408-7.782 17.408-17.408 0-1.946-.307-3.789-1.024-5.734l-17.203-49.459h-17.51l-6.144-9.83-1.536-136.192 7.578-9.728 90.112 1.946V82.998h23.757v163.738h90.112l7.68 9.83v136.192l-6.144 8.806-19.149 1.024-16.384 51.61c-2.867 9.216 2.253 19.149 11.469 22.016 1.741.614 3.584.922 5.325.922 13.312 0 24.064 10.752 24.064 24.064v131.072c0 14.95 12.186 27.136 27.136 27.136h137.523c13.21 0 24.064-10.752 24.064-23.962 0-13.312 10.752-24.064 23.962-24.064h187.29c13.005 0 23.654 10.547 23.654 23.654v.41c-.205 13.005 10.24 23.757 23.245 24.064h48.742c14.95 0 27.136 12.083 27.136 27.136v248.013zM762.778 539.29l-79.36-151.654-79.36 79.36 7.168 50.586-21.606 21.606-36.147-64.922-64.922-36.147 21.709-21.606 50.483 7.27 79.36-79.36-151.45-79.462 28.774-28.774 187.597 43.315 79.36-79.36c11.981-11.981 31.334-11.981 43.315 0 11.981 11.878 11.981 31.334 0 43.315l-79.36 79.36 43.315 187.597-28.877 28.877z"/></svg>